<?xml version="1.0" encoding="utf-8"?>
<!-- Generator: Adobe Illustrator 15.0.0, SVG Export Plug-In . SVG Version: 6.00 Build 0)  -->
<!DOCTYPE svg PUBLIC "-//W3C//DTD SVG 1.1//EN" "http://www.w3.org/Graphics/SVG/1.1/DTD/svg11.dtd">
<svg version="1.1" id="Layer_1" xmlns="http://www.w3.org/2000/svg" xmlns:xlink="http://www.w3.org/1999/xlink" x="0px" y="0px"
	 width="140px" height="35px" viewBox="0 0 140 35" enable-background="new 0 0 140 35" xml:space="preserve">
<linearGradient id="SVGID_1_" gradientUnits="userSpaceOnUse" x1="193.752" y1="-207.5811" x2="247.0352" y2="-207.5811" gradientTransform="matrix(1 0 0 -1 -192.6152 -190.0801)">
	<stop  offset="0" style="stop-color:#FF0073"/>
	<stop  offset="1" style="stop-color:#FF001B"/>
</linearGradient>
<path fill="url(#SVGID_1_)" d="M51.531,22.154l0.006-0.004c-6.096-4.323-7.039-6.471-6.399-14.578l-0.004,0.002
	c0.017-0.204,0.026-0.41,0.026-0.619C45.16,3.114,42.408,0,39.012,0c-3.227,0-5.869,2.815-6.123,6.393l-0.004-0.004
	c-0.379,5.231-1.139,7.505-3.432,9.264c-1.003,0.77-2.347,0.77-3.35,0c-2.294-1.759-3.053-4.033-3.432-9.264l-0.004,0.004
	C22.413,2.815,19.771,0,16.544,0c-3.396,0-6.148,3.114-6.148,6.956c0,0.209,0.012,0.415,0.027,0.619L10.42,7.573
	c0.637,8.107-0.306,10.255-6.401,14.577l0.006,0.005c-2.006,1.424-3.238,4.112-2.8,7.086c0.44,2.983,2.648,5.352,5.305,5.709
	c3.733,0.504,6.903-2.782,6.903-6.904c0-0.209-0.012-0.414-0.027-0.619l0.003,0.003c-0.432-5.488-0.131-8.246,1.996-10.796
	c1.071-1.285,2.859-1.483,4.083-0.387c1.891,1.694,2.45,3.909,2.936,7.981l0.005-0.006c0.352,2.989,2.61,5.299,5.349,5.299
	c2.738,0,4.996-2.31,5.349-5.299l0.004,0.006c0.486-4.072,1.045-6.288,2.938-7.981c1.223-1.096,3.012-0.897,4.083,0.387
	c2.125,2.55,2.428,5.308,1.996,10.796l0.002-0.003c-0.016,0.205-0.027,0.41-0.027,0.619c0,4.122,3.171,7.408,6.904,6.904
	c2.656-0.357,4.863-2.726,5.305-5.709C54.77,26.268,53.537,23.578,51.531,22.154z"/>
<g>
	<path fill="#353535" d="M56.559,20.48c-1.008-1.082-1.512-2.465-1.512-4.151c0-1.686,0.502-3.056,1.502-4.111
		c1-1.054,2.246-1.582,3.738-1.582c0.873,0,1.643,0.198,2.307,0.594c0.666,0.396,1.18,0.917,1.541,1.562v-1.975h2.318V21.92h-2.318
		v-2.075c-0.375,0.685-0.893,1.232-1.551,1.642c-0.658,0.41-1.424,0.615-2.297,0.615C58.809,22.104,57.566,21.562,56.559,20.48z
		 M63.139,19.09c0.664-0.679,0.996-1.588,0.996-2.73s-0.332-2.048-0.996-2.72c-0.666-0.672-1.455-1.008-2.367-1.008
		c-0.914,0-1.703,0.33-2.369,0.987c-0.664,0.659-0.996,1.559-0.996,2.7c0,1.142,0.332,2.059,0.996,2.75
		c0.666,0.692,1.455,1.039,2.369,1.039C61.684,20.107,62.473,19.77,63.139,19.09z"/>
	<path fill="#353535" d="M69.717,20.48c-1.008-1.082-1.512-2.465-1.512-4.151c0-1.686,0.502-3.056,1.502-4.111
		c1-1.054,2.246-1.582,3.738-1.582c0.873,0,1.643,0.198,2.307,0.594c0.666,0.396,1.18,0.917,1.541,1.562v-1.975h2.318v11.285
		c0,1.559-0.48,2.832-1.441,3.818c-0.961,0.987-2.24,1.48-3.838,1.48c-1.6,0-2.896-0.354-3.889-1.059
		c-0.994-0.705-1.56-1.662-1.693-2.871h2.277c0.174,0.577,0.547,1.045,1.116,1.4c0.572,0.355,1.287,0.533,2.146,0.533
		c0.859,0,1.576-0.281,2.146-0.846c0.57-0.565,0.855-1.385,0.855-2.459v-2.257c-0.375,0.685-0.893,1.232-1.551,1.642
		c-0.658,0.41-1.424,0.615-2.297,0.615C71.967,22.104,70.725,21.562,69.717,20.48z M76.297,19.09
		c0.664-0.679,0.996-1.588,0.996-2.73s-0.332-2.048-0.996-2.72c-0.666-0.672-1.455-1.008-2.367-1.008
		c-0.914,0-1.703,0.33-2.369,0.987c-0.664,0.659-0.996,1.559-0.996,2.7c0,1.142,0.332,2.059,0.996,2.75
		c0.666,0.692,1.455,1.039,2.369,1.039C74.842,20.107,75.631,19.77,76.297,19.09z"/>
	<path fill="#353535" d="M86.805,22.104c-1.611,0-2.922-0.524-3.93-1.572c-1.008-1.049-1.512-2.438-1.512-4.171
		s0.512-3.12,1.532-4.161s2.341-1.562,3.959-1.562c1.619,0,2.933,0.5,3.939,1.501c1.008,1.001,1.512,2.307,1.512,3.919
		c0,0.39-0.026,0.752-0.082,1.087h-8.502c0.054,0.928,0.365,1.663,0.937,2.208c0.571,0.543,1.287,0.815,2.146,0.815
		c1.25,0,2.129-0.519,2.642-1.552h2.479c-0.336,1.021-0.947,1.857-1.834,2.509S88.107,22.104,86.805,22.104z M89.002,13.387
		c-0.592-0.544-1.311-0.816-2.156-0.816c-0.848,0-1.555,0.272-2.127,0.816c-0.57,0.544-0.896,1.273-0.977,2.186h6.166
		C89.895,14.66,89.592,13.931,89.002,13.387z"/>
	<path fill="#353535" d="M94.059,21.921V7.009h2.297v14.912H94.059z"/>
	<path fill="#353535" d="M98.875,21.921V7.009h2.297v14.912H98.875z"/>
	<path fill="#353535" d="M104.436,20.48c-1.008-1.082-1.512-2.465-1.512-4.151c0-1.686,0.502-3.056,1.502-4.111
		c1-1.054,2.246-1.582,3.738-1.582c0.873,0,1.643,0.198,2.307,0.594c0.666,0.396,1.18,0.917,1.541,1.562v-1.975h2.318V21.92h-2.318
		v-2.075c-0.375,0.685-0.893,1.232-1.551,1.642c-0.658,0.41-1.424,0.615-2.297,0.615C106.686,22.104,105.443,21.562,104.436,20.48z
		 M111.016,19.09c0.664-0.679,0.996-1.588,0.996-2.73s-0.332-2.048-0.996-2.72c-0.666-0.672-1.455-1.008-2.367-1.008
		c-0.914,0-1.703,0.33-2.369,0.987c-0.664,0.659-0.996,1.559-0.996,2.7c0,1.142,0.332,2.059,0.996,2.75
		c0.666,0.692,1.455,1.039,2.369,1.039C109.561,20.107,110.35,19.77,111.016,19.09z"/>
	<path fill="#353535" d="M119.146,10.818v1.753c0.738-1.29,1.92-1.935,3.545-1.935c1.25,0,2.281,0.417,3.094,1.249
		c0.812,0.833,1.22,1.995,1.22,3.486v6.549h-2.275v-6.207c0-0.994-0.25-1.756-0.745-2.287c-0.498-0.53-1.177-0.796-2.035-0.796
		c-0.859,0-1.543,0.266-2.045,0.796c-0.504,0.531-0.756,1.293-0.756,2.287v6.207h-2.298V10.818H119.146z"/>
	<path fill="#353535" d="M134.248,22.104c-1.619,0-2.951-0.527-4-1.582c-1.047-1.056-1.572-2.438-1.572-4.151
		s0.541-3.097,1.623-4.151c1.08-1.054,2.428-1.582,4.039-1.582c1.613,0,2.959,0.527,4.041,1.582
		c1.082,1.055,1.621,2.435,1.621,4.141c0,1.707-0.553,3.09-1.662,4.151C137.23,21.57,135.867,22.104,134.248,22.104z M136.637,19.16
		c0.67-0.672,1.006-1.605,1.006-2.801c0-1.196-0.324-2.126-0.977-2.791c-0.653-0.665-1.441-0.997-2.367-0.997
		c-0.928,0-1.707,0.332-2.338,0.997s-0.947,1.599-0.947,2.801c0,1.203,0.309,2.136,0.928,2.8c0.617,0.665,1.387,0.998,2.307,0.998
		C135.169,20.167,135.965,19.832,136.637,19.16z"/>
</g>
</svg>
